<mxfile host="Electron" modified="2023-06-13T15:31:26.903Z" agent="Mozilla/5.0 (X11; Linux x86_64) AppleWebKit/537.36 (KHTML, like Gecko) draw.io/21.3.7 Chrome/112.0.5615.204 Electron/24.5.0 Safari/537.36" etag="jwxAD7KiXHo3LFRcWgo8" version="21.3.7" type="device">
  <diagram name="Page-1" id="bhvJnVRrWcaVfPpRuHXv">
    <mxGraphModel dx="1938" dy="1774" grid="1" gridSize="10" guides="1" tooltips="1" connect="1" arrows="1" fold="1" page="1" pageScale="1" pageWidth="850" pageHeight="1100" math="1" shadow="0">
      <root>
        <mxCell id="0" />
        <mxCell id="1" parent="0" />
        <mxCell id="uCDrTCdRoboydZvZlyPO-1" value="" style="endArrow=classic;html=1;curved=1;" parent="1" edge="1">
          <mxGeometry width="50" height="50" relative="1" as="geometry">
            <mxPoint x="40" y="220" as="sourcePoint" />
            <mxPoint x="120" y="220" as="targetPoint" />
            <Array as="points">
              <mxPoint x="80" y="190" />
            </Array>
          </mxGeometry>
        </mxCell>
        <mxCell id="uCDrTCdRoboydZvZlyPO-2" value="" style="endArrow=none;dashed=1;html=1;dashPattern=1 4;strokeWidth=3;rounded=0;" parent="1" edge="1">
          <mxGeometry width="50" height="50" relative="1" as="geometry">
            <mxPoint y="220" as="sourcePoint" />
            <mxPoint x="40" y="220" as="targetPoint" />
          </mxGeometry>
        </mxCell>
        <mxCell id="uCDrTCdRoboydZvZlyPO-3" value="" style="endArrow=classic;html=1;curved=1;" parent="1" edge="1">
          <mxGeometry width="50" height="50" relative="1" as="geometry">
            <mxPoint x="120" y="220" as="sourcePoint" />
            <mxPoint x="200" y="220" as="targetPoint" />
            <Array as="points">
              <mxPoint x="160" y="190" />
            </Array>
          </mxGeometry>
        </mxCell>
        <mxCell id="uCDrTCdRoboydZvZlyPO-4" value="" style="endArrow=classic;html=1;curved=1;" parent="1" edge="1">
          <mxGeometry width="50" height="50" relative="1" as="geometry">
            <mxPoint x="200" y="220" as="sourcePoint" />
            <mxPoint x="280" y="220" as="targetPoint" />
            <Array as="points">
              <mxPoint x="240" y="190" />
            </Array>
          </mxGeometry>
        </mxCell>
        <mxCell id="uCDrTCdRoboydZvZlyPO-5" value="" style="endArrow=classic;html=1;curved=1;" parent="1" edge="1">
          <mxGeometry width="50" height="50" relative="1" as="geometry">
            <mxPoint x="280" y="220" as="sourcePoint" />
            <mxPoint x="360" y="220" as="targetPoint" />
            <Array as="points">
              <mxPoint x="320" y="190" />
            </Array>
          </mxGeometry>
        </mxCell>
        <mxCell id="uCDrTCdRoboydZvZlyPO-6" value="" style="endArrow=classic;html=1;curved=1;" parent="1" edge="1">
          <mxGeometry width="50" height="50" relative="1" as="geometry">
            <mxPoint x="360" y="220" as="sourcePoint" />
            <mxPoint x="440" y="220" as="targetPoint" />
            <Array as="points">
              <mxPoint x="400" y="190" />
            </Array>
          </mxGeometry>
        </mxCell>
        <mxCell id="uCDrTCdRoboydZvZlyPO-7" value="" style="endArrow=classic;html=1;curved=1;" parent="1" edge="1">
          <mxGeometry width="50" height="50" relative="1" as="geometry">
            <mxPoint x="440" y="220" as="sourcePoint" />
            <mxPoint x="520" y="220" as="targetPoint" />
            <Array as="points">
              <mxPoint x="480" y="190" />
            </Array>
          </mxGeometry>
        </mxCell>
        <mxCell id="uCDrTCdRoboydZvZlyPO-8" value="" style="endArrow=classic;html=1;curved=1;" parent="1" edge="1">
          <mxGeometry width="50" height="50" relative="1" as="geometry">
            <mxPoint x="520" y="220" as="sourcePoint" />
            <mxPoint x="600" y="220" as="targetPoint" />
            <Array as="points">
              <mxPoint x="560" y="190" />
            </Array>
          </mxGeometry>
        </mxCell>
        <mxCell id="uCDrTCdRoboydZvZlyPO-9" value="" style="endArrow=classic;html=1;curved=1;" parent="1" edge="1">
          <mxGeometry width="50" height="50" relative="1" as="geometry">
            <mxPoint x="600" y="220" as="sourcePoint" />
            <mxPoint x="680" y="220" as="targetPoint" />
            <Array as="points">
              <mxPoint x="640" y="190" />
            </Array>
          </mxGeometry>
        </mxCell>
        <mxCell id="uCDrTCdRoboydZvZlyPO-10" value="" style="endArrow=classic;html=1;curved=1;" parent="1" edge="1">
          <mxGeometry width="50" height="50" relative="1" as="geometry">
            <mxPoint x="680" y="220" as="sourcePoint" />
            <mxPoint x="760" y="220" as="targetPoint" />
            <Array as="points">
              <mxPoint x="720" y="190" />
            </Array>
          </mxGeometry>
        </mxCell>
        <mxCell id="uCDrTCdRoboydZvZlyPO-11" value="" style="endArrow=classic;html=1;curved=1;" parent="1" edge="1">
          <mxGeometry width="50" height="50" relative="1" as="geometry">
            <mxPoint x="760" y="220" as="sourcePoint" />
            <mxPoint x="840" y="220" as="targetPoint" />
            <Array as="points">
              <mxPoint x="800" y="190" />
            </Array>
          </mxGeometry>
        </mxCell>
        <mxCell id="uCDrTCdRoboydZvZlyPO-12" value="" style="endArrow=classic;html=1;curved=1;" parent="1" edge="1">
          <mxGeometry width="50" height="50" relative="1" as="geometry">
            <mxPoint x="840" y="220" as="sourcePoint" />
            <mxPoint x="920" y="220" as="targetPoint" />
            <Array as="points">
              <mxPoint x="880" y="190" />
            </Array>
          </mxGeometry>
        </mxCell>
        <mxCell id="uCDrTCdRoboydZvZlyPO-13" value="" style="endArrow=classic;html=1;curved=1;" parent="1" edge="1">
          <mxGeometry width="50" height="50" relative="1" as="geometry">
            <mxPoint x="970" y="220" as="sourcePoint" />
            <mxPoint x="1050" y="220" as="targetPoint" />
            <Array as="points">
              <mxPoint x="1010" y="190" />
            </Array>
          </mxGeometry>
        </mxCell>
        <mxCell id="uCDrTCdRoboydZvZlyPO-14" value="" style="endArrow=classic;html=1;curved=1;" parent="1" edge="1">
          <mxGeometry width="50" height="50" relative="1" as="geometry">
            <mxPoint x="1050" y="220" as="sourcePoint" />
            <mxPoint x="1130" y="220" as="targetPoint" />
            <Array as="points">
              <mxPoint x="1090" y="190" />
            </Array>
          </mxGeometry>
        </mxCell>
        <mxCell id="uCDrTCdRoboydZvZlyPO-15" value="" style="endArrow=classic;html=1;curved=1;" parent="1" edge="1">
          <mxGeometry width="50" height="50" relative="1" as="geometry">
            <mxPoint x="1130" y="220" as="sourcePoint" />
            <mxPoint x="1210" y="220" as="targetPoint" />
            <Array as="points">
              <mxPoint x="1170" y="190" />
            </Array>
          </mxGeometry>
        </mxCell>
        <mxCell id="uCDrTCdRoboydZvZlyPO-16" value="" style="endArrow=classic;html=1;curved=1;" parent="1" edge="1">
          <mxGeometry width="50" height="50" relative="1" as="geometry">
            <mxPoint x="1210" y="220" as="sourcePoint" />
            <mxPoint x="1290" y="220" as="targetPoint" />
            <Array as="points">
              <mxPoint x="1250" y="190" />
            </Array>
          </mxGeometry>
        </mxCell>
        <mxCell id="uCDrTCdRoboydZvZlyPO-17" value="" style="endArrow=classic;html=1;curved=1;" parent="1" edge="1">
          <mxGeometry width="50" height="50" relative="1" as="geometry">
            <mxPoint x="1290" y="220" as="sourcePoint" />
            <mxPoint x="1370" y="220" as="targetPoint" />
            <Array as="points">
              <mxPoint x="1330" y="190" />
            </Array>
          </mxGeometry>
        </mxCell>
        <mxCell id="uCDrTCdRoboydZvZlyPO-18" value="" style="endArrow=none;dashed=1;html=1;dashPattern=1 4;strokeWidth=3;rounded=0;" parent="1" edge="1">
          <mxGeometry width="50" height="50" relative="1" as="geometry">
            <mxPoint x="1410" y="220" as="sourcePoint" />
            <mxPoint x="1370" y="220" as="targetPoint" />
          </mxGeometry>
        </mxCell>
        <mxCell id="uCDrTCdRoboydZvZlyPO-21" value="" style="shape=crossbar;whiteSpace=wrap;html=1;rounded=1;strokeWidth=3;strokeColor=#3399FF;" parent="1" vertex="1">
          <mxGeometry x="120" y="230" width="800" height="20" as="geometry" />
        </mxCell>
        <mxCell id="uCDrTCdRoboydZvZlyPO-22" value="PUSH" style="text;html=1;strokeColor=none;fillColor=none;align=center;verticalAlign=middle;whiteSpace=wrap;rounded=0;fontSize=32;fontColor=#3399FF;" parent="1" vertex="1">
          <mxGeometry x="640" y="240" width="130" height="50" as="geometry" />
        </mxCell>
        <mxCell id="uCDrTCdRoboydZvZlyPO-24" value="·&lt;br style=&quot;font-size: 12px;&quot;&gt;·&lt;br style=&quot;font-size: 12px;&quot;&gt;·" style="rounded=0;whiteSpace=wrap;html=1;strokeColor=#00CC66;labelBackgroundColor=none;fontColor=#00CC66;fontSize=12;" parent="1" vertex="1">
          <mxGeometry x="180" y="140" width="10" height="40" as="geometry" />
        </mxCell>
        <mxCell id="uCDrTCdRoboydZvZlyPO-25" value="s" style="rounded=0;whiteSpace=wrap;html=1;strokeColor=#00CC66;labelBackgroundColor=none;fontColor=#00CC66;fontSize=12;" parent="1" vertex="1">
          <mxGeometry x="180" y="130" width="10" height="10" as="geometry" />
        </mxCell>
        <mxCell id="uCDrTCdRoboydZvZlyPO-26" value="stos" style="text;html=1;strokeColor=none;fillColor=none;align=center;verticalAlign=middle;whiteSpace=wrap;rounded=0;fontColor=#00CC66;fontSize=12;" parent="1" vertex="1">
          <mxGeometry x="170" y="180" width="30" height="20" as="geometry" />
        </mxCell>
        <mxCell id="uCDrTCdRoboydZvZlyPO-27" value="stan" style="text;html=1;strokeColor=none;fillColor=none;align=center;verticalAlign=middle;whiteSpace=wrap;rounded=0;fontColor=#FF3399;fontSize=12;" parent="1" vertex="1">
          <mxGeometry x="200" y="180" width="30" height="20" as="geometry" />
        </mxCell>
        <mxCell id="uCDrTCdRoboydZvZlyPO-28" value="q" style="text;html=1;strokeColor=none;fillColor=none;align=center;verticalAlign=middle;whiteSpace=wrap;rounded=0;fontColor=#FF3399;fontSize=12;" parent="1" vertex="1">
          <mxGeometry x="210" y="170" width="10" height="10" as="geometry" />
        </mxCell>
        <mxCell id="uCDrTCdRoboydZvZlyPO-30" value="·&lt;br style=&quot;font-size: 12px;&quot;&gt;·&lt;br style=&quot;font-size: 12px;&quot;&gt;·" style="rounded=0;whiteSpace=wrap;html=1;strokeColor=#00CC66;labelBackgroundColor=none;fontColor=#00CC66;fontSize=12;" parent="1" vertex="1">
          <mxGeometry x="340" y="140" width="10" height="40" as="geometry" />
        </mxCell>
        <mxCell id="uCDrTCdRoboydZvZlyPO-31" value="s" style="rounded=0;whiteSpace=wrap;html=1;strokeColor=#00CC66;labelBackgroundColor=none;fontColor=#00CC66;fontSize=12;" parent="1" vertex="1">
          <mxGeometry x="340" y="130" width="10" height="10" as="geometry" />
        </mxCell>
        <mxCell id="uCDrTCdRoboydZvZlyPO-32" value="stos" style="text;html=1;strokeColor=none;fillColor=none;align=center;verticalAlign=middle;whiteSpace=wrap;rounded=0;fontColor=#00CC66;fontSize=12;" parent="1" vertex="1">
          <mxGeometry x="330" y="180" width="30" height="20" as="geometry" />
        </mxCell>
        <mxCell id="uCDrTCdRoboydZvZlyPO-33" value="stan" style="text;html=1;strokeColor=none;fillColor=none;align=center;verticalAlign=middle;whiteSpace=wrap;rounded=0;fontColor=#FF3399;fontSize=12;" parent="1" vertex="1">
          <mxGeometry x="360" y="180" width="30" height="20" as="geometry" />
        </mxCell>
        <mxCell id="uCDrTCdRoboydZvZlyPO-34" value="q" style="text;html=1;strokeColor=none;fillColor=none;align=center;verticalAlign=middle;whiteSpace=wrap;rounded=0;fontColor=#FF3399;fontSize=12;" parent="1" vertex="1">
          <mxGeometry x="370" y="170" width="10" height="10" as="geometry" />
        </mxCell>
        <mxCell id="uCDrTCdRoboydZvZlyPO-35" value="$$ v_{1} $$" style="rounded=0;whiteSpace=wrap;html=1;strokeColor=#00CC66;labelBackgroundColor=none;fontColor=#00CC66;fontSize=12;" parent="1" vertex="1">
          <mxGeometry x="340" y="100" width="10" height="30" as="geometry" />
        </mxCell>
        <mxCell id="mUGaom47AFbaPxwO7cgJ-8" value="·&lt;br style=&quot;font-size: 12px;&quot;&gt;·&lt;br style=&quot;font-size: 12px;&quot;&gt;·" style="rounded=0;whiteSpace=wrap;html=1;strokeColor=#00CC66;labelBackgroundColor=none;fontColor=#00CC66;fontSize=12;" vertex="1" parent="1">
          <mxGeometry x="580" y="140" width="10" height="40" as="geometry" />
        </mxCell>
        <mxCell id="mUGaom47AFbaPxwO7cgJ-9" value="s" style="rounded=0;whiteSpace=wrap;html=1;strokeColor=#00CC66;labelBackgroundColor=none;fontColor=#00CC66;fontSize=12;" vertex="1" parent="1">
          <mxGeometry x="580" y="130" width="10" height="10" as="geometry" />
        </mxCell>
        <mxCell id="mUGaom47AFbaPxwO7cgJ-10" value="stos" style="text;html=1;strokeColor=none;fillColor=none;align=center;verticalAlign=middle;whiteSpace=wrap;rounded=0;fontColor=#00CC66;fontSize=12;" vertex="1" parent="1">
          <mxGeometry x="570" y="180" width="30" height="20" as="geometry" />
        </mxCell>
        <mxCell id="mUGaom47AFbaPxwO7cgJ-11" value="stan" style="text;html=1;strokeColor=none;fillColor=none;align=center;verticalAlign=middle;whiteSpace=wrap;rounded=0;fontColor=#FF3399;fontSize=12;" vertex="1" parent="1">
          <mxGeometry x="600" y="180" width="30" height="20" as="geometry" />
        </mxCell>
        <mxCell id="mUGaom47AFbaPxwO7cgJ-12" value="q" style="text;html=1;strokeColor=none;fillColor=none;align=center;verticalAlign=middle;whiteSpace=wrap;rounded=0;fontColor=#FF3399;fontSize=12;" vertex="1" parent="1">
          <mxGeometry x="610" y="170" width="10" height="10" as="geometry" />
        </mxCell>
        <mxCell id="mUGaom47AFbaPxwO7cgJ-13" value="$$ v_{1} $$" style="rounded=0;whiteSpace=wrap;html=1;strokeColor=#00CC66;labelBackgroundColor=none;fontColor=#00CC66;fontSize=12;" vertex="1" parent="1">
          <mxGeometry x="580" y="100" width="10" height="30" as="geometry" />
        </mxCell>
        <mxCell id="mUGaom47AFbaPxwO7cgJ-14" value="$$ v_{2} $$" style="rounded=0;whiteSpace=wrap;html=1;strokeColor=#00CC66;labelBackgroundColor=none;fontColor=#00CC66;fontSize=12;" vertex="1" parent="1">
          <mxGeometry x="580" y="70" width="10" height="30" as="geometry" />
        </mxCell>
        <mxCell id="mUGaom47AFbaPxwO7cgJ-15" value="·&lt;br style=&quot;font-size: 12px;&quot;&gt;·&lt;br style=&quot;font-size: 12px;&quot;&gt;·" style="rounded=0;whiteSpace=wrap;html=1;strokeColor=#00CC66;labelBackgroundColor=none;fontColor=#00CC66;fontSize=12;" vertex="1" parent="1">
          <mxGeometry x="1110" y="140" width="10" height="40" as="geometry" />
        </mxCell>
        <mxCell id="mUGaom47AFbaPxwO7cgJ-16" value="s" style="rounded=0;whiteSpace=wrap;html=1;strokeColor=#00CC66;labelBackgroundColor=none;fontColor=#00CC66;fontSize=12;" vertex="1" parent="1">
          <mxGeometry x="1110" y="130" width="10" height="10" as="geometry" />
        </mxCell>
        <mxCell id="mUGaom47AFbaPxwO7cgJ-17" value="stos" style="text;html=1;strokeColor=none;fillColor=none;align=center;verticalAlign=middle;whiteSpace=wrap;rounded=0;fontColor=#00CC66;fontSize=12;" vertex="1" parent="1">
          <mxGeometry x="1100" y="180" width="30" height="20" as="geometry" />
        </mxCell>
        <mxCell id="mUGaom47AFbaPxwO7cgJ-18" value="stan" style="text;html=1;strokeColor=none;fillColor=none;align=center;verticalAlign=middle;whiteSpace=wrap;rounded=0;fontColor=#FF3399;fontSize=12;" vertex="1" parent="1">
          <mxGeometry x="1130" y="180" width="30" height="20" as="geometry" />
        </mxCell>
        <mxCell id="mUGaom47AFbaPxwO7cgJ-19" value="q" style="text;html=1;strokeColor=none;fillColor=none;align=center;verticalAlign=middle;whiteSpace=wrap;rounded=0;fontColor=#FF3399;fontSize=12;" vertex="1" parent="1">
          <mxGeometry x="1140" y="170" width="10" height="10" as="geometry" />
        </mxCell>
        <mxCell id="mUGaom47AFbaPxwO7cgJ-20" value="$$ v_{1} $$" style="rounded=0;whiteSpace=wrap;html=1;strokeColor=#00CC66;labelBackgroundColor=none;fontColor=#00CC66;fontSize=12;" vertex="1" parent="1">
          <mxGeometry x="1110" y="100" width="10" height="30" as="geometry" />
        </mxCell>
        <mxCell id="mUGaom47AFbaPxwO7cgJ-21" value="$$ v_{2} $$" style="rounded=0;whiteSpace=wrap;html=1;strokeColor=#00CC66;labelBackgroundColor=none;fontColor=#00CC66;fontSize=12;" vertex="1" parent="1">
          <mxGeometry x="1110" y="70" width="10" height="30" as="geometry" />
        </mxCell>
        <mxCell id="mUGaom47AFbaPxwO7cgJ-22" value="·&lt;br style=&quot;font-size: 12px;&quot;&gt;·&lt;br style=&quot;font-size: 12px;&quot;&gt;·" style="rounded=0;whiteSpace=wrap;html=1;strokeColor=#00CC66;labelBackgroundColor=none;fontColor=#00CC66;fontSize=12;" vertex="1" parent="1">
          <mxGeometry x="1110" y="30" width="10" height="40" as="geometry" />
        </mxCell>
        <mxCell id="mUGaom47AFbaPxwO7cgJ-23" value="$$ v_{\left| Q \right|} $$" style="rounded=0;whiteSpace=wrap;html=1;strokeColor=#00CC66;labelBackgroundColor=none;fontColor=#00CC66;fontSize=12;align=center;" vertex="1" parent="1">
          <mxGeometry x="1110" width="10" height="30" as="geometry" />
        </mxCell>
        <mxCell id="mUGaom47AFbaPxwO7cgJ-24" value="" style="endArrow=none;dashed=1;html=1;dashPattern=1 4;strokeWidth=3;rounded=0;" edge="1" parent="1">
          <mxGeometry width="50" height="50" relative="1" as="geometry">
            <mxPoint x="960" y="220" as="sourcePoint" />
            <mxPoint x="920" y="220" as="targetPoint" />
          </mxGeometry>
        </mxCell>
        <mxCell id="mUGaom47AFbaPxwO7cgJ-25" value="" style="shape=crossbar;whiteSpace=wrap;html=1;rounded=1;strokeWidth=3;strokeColor=#3399FF;" vertex="1" parent="1">
          <mxGeometry x="970" y="230" width="320" height="20" as="geometry" />
        </mxCell>
        <mxCell id="mUGaom47AFbaPxwO7cgJ-26" value="" style="endArrow=none;dashed=1;html=1;dashPattern=1 4;strokeWidth=3;rounded=0;strokeColor=#3399FF;" edge="1" parent="1">
          <mxGeometry width="50" height="50" relative="1" as="geometry">
            <mxPoint x="960" y="240" as="sourcePoint" />
            <mxPoint x="920" y="240" as="targetPoint" />
          </mxGeometry>
        </mxCell>
      </root>
    </mxGraphModel>
  </diagram>
</mxfile>
